<svg xmlns="http://www.w3.org/2000/svg" xmlns:xlink="http://www.w3.org/1999/xlink" width="2000" zoomAndPan="magnify" viewBox="0 0 1500 1499.999933" height="2000" preserveAspectRatio="xMidYMid meet" version="1.0"><defs><g/><clipPath id="09c9c38f1c"><path d="M 256.652344 504.117188 L 551.402344 504.117188 L 551.402344 912.867188 L 256.652344 912.867188 Z M 256.652344 504.117188 " clip-rule="nonzero"/></clipPath><clipPath id="6cbde11e8c"><path d="M 404.023438 733.765625 L 755.773438 733.765625 L 755.773438 1092.261719 L 404.023438 1092.261719 Z M 404.023438 733.765625 " clip-rule="nonzero"/></clipPath><clipPath id="06ed3561f2"><path d="M 760 751 L 1276.886719 751 L 1276.886719 912 L 760 912 Z M 760 751 " clip-rule="nonzero"/></clipPath><clipPath id="3501f20063"><path d="M 403 913 L 722 913 L 722 1041 L 403 1041 Z M 403 913 " clip-rule="nonzero"/></clipPath><clipPath id="4616a6f4b9"><path d="M 719.632812 1040.152344 L 403.941406 1033.988281 L 406.296875 913.261719 L 721.988281 919.425781 Z M 719.632812 1040.152344 " clip-rule="nonzero"/></clipPath><clipPath id="c48ac8cb2e"><path d="M 1 4 L 317 4 L 317 127 L 1 127 Z M 1 4 " clip-rule="nonzero"/></clipPath><clipPath id="783bf7a719"><path d="M 316.632812 127.152344 L 0.941406 120.988281 L 3.296875 0.261719 L 318.988281 6.425781 Z M 316.632812 127.152344 " clip-rule="nonzero"/></clipPath><clipPath id="44633b7124"><path d="M 318.992188 6.167969 L 3.304688 0.00390625 L 0.945312 120.730469 L 316.636719 126.894531 Z M 318.992188 6.167969 " clip-rule="nonzero"/></clipPath><clipPath id="d90cedc413"><path d="M 318.992188 6.167969 L 3.304688 0.00390625 L 0.945312 120.730469 L 316.636719 126.894531 Z M 318.992188 6.167969 " clip-rule="nonzero"/></clipPath><clipPath id="40a8de465b"><rect x="0" width="319" y="0" height="128"/></clipPath><clipPath id="91d4331237"><path d="M 212 406 L 796 406 L 796 501 L 212 501 Z M 212 406 " clip-rule="nonzero"/></clipPath><clipPath id="5b4ff0862d"><path d="M 214.96875 388.046875 L 1156.097656 428.558594 L 1150.257812 564.179688 L 209.128906 523.671875 Z M 214.96875 388.046875 " clip-rule="nonzero"/></clipPath><clipPath id="eaed3e77c9"><path d="M 214.96875 388.046875 L 1156.097656 428.558594 L 1150.257812 564.179688 L 209.128906 523.671875 Z M 214.96875 388.046875 " clip-rule="nonzero"/></clipPath><clipPath id="3a1004e284"><path d="M 469 471 L 1151 471 L 1151 565 L 469 565 Z M 469 471 " clip-rule="nonzero"/></clipPath><clipPath id="fdd171a84a"><path d="M 214.96875 388.046875 L 1156.097656 428.558594 L 1150.257812 564.179688 L 209.128906 523.671875 Z M 214.96875 388.046875 " clip-rule="nonzero"/></clipPath><clipPath id="eebf66c770"><path d="M 214.96875 388.046875 L 1156.097656 428.558594 L 1150.257812 564.179688 L 209.128906 523.671875 Z M 214.96875 388.046875 " clip-rule="nonzero"/></clipPath><clipPath id="33bcd28fb9"><path d="M 362 482 L 492 482 L 492 530 L 362 530 Z M 362 482 " clip-rule="nonzero"/></clipPath><clipPath id="d946d07109"><path d="M 214.96875 388.046875 L 1156.097656 428.558594 L 1150.257812 564.179688 L 209.128906 523.671875 Z M 214.96875 388.046875 " clip-rule="nonzero"/></clipPath><clipPath id="06c693d39b"><path d="M 214.96875 388.046875 L 1156.097656 428.558594 L 1150.257812 564.179688 L 209.128906 523.671875 Z M 214.96875 388.046875 " clip-rule="nonzero"/></clipPath><clipPath id="d5f7a00bc7"><path d="M 256.652344 504.117188 L 551.402344 504.117188 L 551.402344 912.867188 L 256.652344 912.867188 Z M 256.652344 504.117188 " clip-rule="nonzero"/></clipPath><clipPath id="6272615231"><path d="M 994 919.949219 L 1178.371094 919.949219 L 1178.371094 1105 L 994 1105 Z M 994 919.949219 " clip-rule="nonzero"/></clipPath><clipPath id="acef22a5df"><path d="M 1090.625 920.054688 L 1098.042969 934.679688 C 1103.726562 935.546875 1109.296875 937.039062 1114.652344 939.128906 L 1128.386719 930.171875 C 1131.015625 931.527344 1133.578125 933.007812 1136.066406 934.609375 L 1135.179688 950.980469 C 1139.667969 954.574219 1143.746094 958.648438 1147.339844 963.136719 L 1163.710938 962.25 C 1165.3125 964.738281 1166.792969 967.300781 1168.144531 969.929688 L 1159.191406 983.664062 C 1161.28125 989.023438 1162.773438 994.59375 1163.640625 1000.273438 L 1178.265625 1007.695312 C 1178.40625 1010.644531 1178.40625 1013.605469 1178.265625 1016.5625 L 1163.640625 1023.976562 C 1162.773438 1029.664062 1161.28125 1035.230469 1159.191406 1040.589844 L 1168.144531 1054.320312 C 1166.792969 1056.953125 1165.3125 1059.515625 1163.710938 1062.003906 L 1147.339844 1061.117188 C 1143.746094 1065.601562 1139.667969 1069.679688 1135.179688 1073.277344 L 1136.066406 1089.648438 C 1133.578125 1091.25 1131.015625 1092.726562 1128.386719 1094.078125 L 1114.652344 1085.128906 C 1109.296875 1087.214844 1103.726562 1088.707031 1098.042969 1089.578125 L 1090.625 1104.199219 C 1087.671875 1104.34375 1084.710938 1104.34375 1081.757812 1104.199219 L 1074.339844 1089.578125 C 1068.65625 1088.707031 1063.085938 1087.214844 1057.730469 1085.128906 L 1043.996094 1094.078125 C 1041.363281 1092.726562 1038.800781 1091.25 1036.3125 1089.648438 L 1037.203125 1073.277344 C 1032.714844 1069.679688 1028.636719 1065.601562 1025.039062 1061.117188 L 1008.667969 1062.003906 C 1007.070312 1059.515625 1005.589844 1056.953125 1004.238281 1054.320312 L 1013.1875 1040.589844 C 1011.101562 1035.230469 1009.609375 1029.664062 1008.738281 1023.976562 L 994.117188 1016.5625 C 993.976562 1013.605469 993.976562 1010.644531 994.117188 1007.695312 L 1008.738281 1000.273438 C 1009.609375 994.59375 1011.101562 989.023438 1013.1875 983.664062 L 1004.238281 969.929688 C 1005.589844 967.300781 1007.070312 964.738281 1008.667969 962.25 L 1025.039062 963.136719 C 1028.636719 958.648438 1032.714844 954.574219 1037.203125 950.980469 L 1036.3125 934.609375 C 1038.800781 933.007812 1041.363281 931.527344 1043.996094 930.171875 L 1057.730469 939.128906 C 1063.085938 937.039062 1068.65625 935.546875 1074.339844 934.679688 L 1081.757812 920.054688 C 1084.710938 919.914062 1087.671875 919.914062 1090.625 920.054688 Z M 1086.191406 967.425781 C 1061.519531 967.425781 1041.492188 987.457031 1041.492188 1012.125 C 1041.492188 1036.800781 1061.519531 1056.828125 1086.191406 1056.828125 C 1110.863281 1056.828125 1130.890625 1036.800781 1130.890625 1012.125 C 1130.890625 987.457031 1110.863281 967.425781 1086.191406 967.425781 Z M 1086.191406 967.425781 " clip-rule="nonzero"/></clipPath><clipPath id="ee22a542f1"><path d="M 0 0.949219 L 184.371094 0.949219 L 184.371094 185.480469 L 0 185.480469 Z M 0 0.949219 " clip-rule="nonzero"/></clipPath><clipPath id="86cea68f6f"><path d="M 96.625 1.054688 L 104.042969 15.679688 C 109.726562 16.546875 115.296875 18.039062 120.652344 20.128906 L 134.386719 11.171875 C 137.015625 12.527344 139.578125 14.007812 142.066406 15.609375 L 141.179688 31.980469 C 145.667969 35.574219 149.746094 39.648438 153.339844 44.136719 L 169.710938 43.25 C 171.3125 45.738281 172.792969 48.300781 174.144531 50.929688 L 165.191406 64.664062 C 167.28125 70.023438 168.773438 75.59375 169.640625 81.273438 L 184.265625 88.695312 C 184.40625 91.644531 184.40625 94.605469 184.265625 97.5625 L 169.640625 104.976562 C 168.773438 110.664062 167.28125 116.230469 165.191406 121.589844 L 174.144531 135.320312 C 172.792969 137.953125 171.3125 140.515625 169.710938 143.003906 L 153.339844 142.117188 C 149.746094 146.601562 145.667969 150.679688 141.179688 154.277344 L 142.066406 170.648438 C 139.578125 172.25 137.015625 173.726562 134.386719 175.078125 L 120.652344 166.128906 C 115.296875 168.214844 109.726562 169.707031 104.042969 170.578125 L 96.625 185.199219 C 93.671875 185.34375 90.710938 185.34375 87.757812 185.199219 L 80.339844 170.578125 C 74.65625 169.707031 69.085938 168.214844 63.730469 166.128906 L 49.996094 175.078125 C 47.363281 173.726562 44.800781 172.25 42.3125 170.648438 L 43.203125 154.277344 C 38.714844 150.679688 34.636719 146.601562 31.039062 142.117188 L 14.667969 143.003906 C 13.070312 140.515625 11.589844 137.953125 10.238281 135.320312 L 19.1875 121.589844 C 17.101562 116.230469 15.609375 110.664062 14.738281 104.976562 L 0.117188 97.5625 C -0.0234375 94.605469 -0.0234375 91.644531 0.117188 88.695312 L 14.738281 81.273438 C 15.609375 75.59375 17.101562 70.023438 19.1875 64.664062 L 10.238281 50.929688 C 11.589844 48.300781 13.070312 45.738281 14.667969 43.25 L 31.039062 44.136719 C 34.636719 39.648438 38.714844 35.574219 43.203125 31.980469 L 42.3125 15.609375 C 44.800781 14.007812 47.363281 12.527344 49.996094 11.171875 L 63.730469 20.128906 C 69.085938 18.039062 74.65625 16.546875 80.339844 15.679688 L 87.757812 1.054688 C 90.710938 0.914062 93.671875 0.914062 96.625 1.054688 Z M 92.191406 48.425781 C 67.519531 48.425781 47.492188 68.457031 47.492188 93.125 C 47.492188 117.800781 67.519531 137.828125 92.191406 137.828125 C 116.863281 137.828125 136.890625 117.800781 136.890625 93.125 C 136.890625 68.457031 116.863281 48.425781 92.191406 48.425781 Z M 92.191406 48.425781 " clip-rule="nonzero"/></clipPath><clipPath id="1a3bf8c48a"><rect x="0" width="185" y="0" height="186"/></clipPath></defs><g clip-path="url(#09c9c38f1c)"><path fill="#000000" d="M 294.566406 912.851562 L 294.566406 807.988281 L 418.914062 807.988281 C 434.105469 807.988281 446.460938 795.628906 446.460938 780.4375 L 446.460938 608.945312 L 326.78125 608.945312 L 256.714844 504.085938 L 551.34375 504.085938 L 551.34375 778.71875 C 551.34375 852.679688 491.164062 912.851562 417.195312 912.851562 Z M 294.566406 912.851562 " fill-opacity="1" fill-rule="nonzero"/></g><g clip-path="url(#6cbde11e8c)"><path fill="#cc0000" d="M 502.957031 827.363281 L 404.023438 1092.257812 L 495.636719 1092.257812 L 518.09375 1028.691406 L 543.71875 951.921875 Z M 621.824219 733.769531 L 538.523438 733.769531 L 579.136719 850.859375 L 579.183594 850.710938 L 639.335938 1028.691406 L 662.238281 1092.257812 L 755.632812 1092.257812 L 621.824219 733.769531 " fill-opacity="1" fill-rule="nonzero"/></g><g clip-path="url(#06ed3561f2)"><path fill="#cc0000" d="M 1149.804688 904.371094 L 1149.804688 882.566406 L 1136.21875 882.566406 L 1136.105469 891.332031 L 1145.421875 904.371094 Z M 783.582031 751.613281 C 770.101562 773.53125 770.101562 889.6875 783.582031 911.496094 L 772.730469 911.496094 C 755.964844 911.496094 755.964844 751.613281 772.730469 751.613281 Z M 823.6875 843.113281 C 817.332031 831.28125 821.824219 816.488281 833.660156 810.019531 C 845.496094 803.664062 860.289062 808.15625 866.753906 819.992188 C 873.109375 831.828125 868.617188 846.621094 856.78125 853.085938 C 844.945312 859.441406 830.152344 854.949219 823.6875 843.113281 Z M 835.082031 812.761719 C 845.496094 807.171875 858.425781 811.117188 864.015625 821.527344 C 864.015625 821.527344 864.015625 821.636719 864.015625 821.636719 C 858.097656 812.433594 845.164062 809.035156 834.753906 814.074219 C 831.03125 815.9375 828.179688 818.570312 826.207031 821.636719 C 828.179688 818.019531 831.140625 814.84375 834.972656 812.761719 Z M 864.125 841.582031 C 862.152344 845.195312 859.191406 848.375 855.355469 850.457031 C 844.945312 856.046875 832.015625 852.101562 826.425781 841.691406 C 826.425781 841.691406 826.425781 841.582031 826.425781 841.582031 C 832.34375 850.785156 845.273438 854.183594 855.683594 849.140625 C 859.410156 847.277344 862.261719 844.648438 864.234375 841.582031 Z M 828.835938 840.265625 C 824.015625 831.28125 827.414062 819.992188 836.398438 815.171875 C 845.382812 810.351562 856.671875 813.746094 861.492188 822.734375 C 866.316406 831.71875 862.917969 843.003906 853.933594 847.828125 C 844.945312 852.648438 833.660156 849.25 828.835938 840.265625 Z M 830.371094 840.046875 C 826.316406 831.828125 829.496094 821.746094 837.605469 817.363281 C 845.714844 812.980469 855.90625 815.9375 860.507812 823.9375 C 860.398438 823.828125 860.398438 823.609375 860.289062 823.5 C 855.796875 815.171875 845.496094 812.101562 837.164062 816.488281 C 828.835938 820.980469 825.769531 831.28125 830.152344 839.609375 C 830.261719 839.71875 830.371094 839.9375 830.371094 840.046875 Z M 843.414062 828.320312 C 841.660156 829.308594 840.890625 831.5 841.878906 833.363281 C 841.878906 833.363281 841.988281 833.472656 841.988281 833.472656 C 841.109375 831.71875 841.878906 829.527344 843.632812 828.648438 C 845.382812 827.664062 847.578125 828.320312 848.5625 829.964844 C 848.5625 829.964844 848.5625 829.855469 848.453125 829.855469 C 847.464844 828.101562 845.273438 827.335938 843.414062 828.320312 Z M 843.082031 827.773438 C 841 828.871094 840.234375 831.5 841.332031 833.582031 C 841.332031 833.691406 841.441406 833.691406 841.441406 833.800781 C 840.453125 831.71875 841.21875 829.199219 843.300781 828.101562 C 845.382812 827.007812 847.90625 827.773438 849 829.746094 C 849 829.636719 848.890625 829.636719 848.890625 829.527344 C 847.796875 827.445312 845.164062 826.675781 843.082031 827.773438 Z M 842.753906 827.117188 C 840.34375 828.429688 839.359375 831.5 840.671875 833.910156 C 840.671875 834.019531 840.78125 834.019531 840.78125 834.128906 C 839.578125 831.71875 840.5625 828.757812 842.972656 827.554688 C 845.382812 826.238281 848.34375 827.117188 849.660156 829.417969 C 849.660156 829.308594 849.546875 829.308594 849.546875 829.199219 C 848.234375 826.789062 845.164062 825.800781 842.753906 827.117188 Z M 842.316406 826.347656 C 839.46875 827.882812 838.371094 831.390625 839.90625 834.238281 C 839.90625 834.347656 840.015625 834.347656 840.015625 834.457031 C 838.699219 831.609375 839.796875 828.210938 842.535156 826.789062 C 845.273438 825.253906 848.78125 826.238281 850.316406 828.980469 C 850.316406 828.871094 850.207031 828.871094 850.207031 828.757812 C 848.671875 825.910156 845.164062 824.816406 842.316406 826.347656 Z M 841.878906 825.472656 C 838.589844 827.226562 837.277344 831.390625 839.136719 834.675781 C 839.136719 834.785156 839.25 834.894531 839.25 834.894531 C 837.714844 831.609375 838.917969 827.664062 842.207031 825.910156 C 845.496094 824.15625 849.4375 825.363281 851.300781 828.429688 C 851.300781 828.320312 851.191406 828.210938 851.191406 828.210938 C 849.4375 824.925781 845.273438 823.609375 841.988281 825.472656 Z M 841.332031 824.484375 C 837.496094 826.566406 835.960938 831.390625 838.042969 835.226562 C 838.042969 835.335938 838.152344 835.445312 838.152344 835.554688 C 836.289062 831.71875 837.824219 827.117188 841.550781 825.144531 C 845.273438 823.171875 849.988281 824.484375 852.179688 828.101562 C 852.179688 827.992188 852.070312 827.882812 852.070312 827.773438 C 849.988281 823.9375 845.164062 822.402344 841.332031 824.484375 Z M 840.671875 823.28125 C 836.179688 825.691406 834.425781 831.28125 836.835938 835.773438 C 836.945312 835.882812 836.945312 835.992188 837.054688 836.101562 C 834.863281 831.609375 836.617188 826.238281 841 823.9375 C 845.382812 821.636719 850.863281 823.171875 853.382812 827.445312 C 853.273438 827.335938 853.273438 827.226562 853.164062 827.117188 C 850.753906 822.621094 845.164062 820.871094 840.671875 823.28125 Z M 839.90625 821.964844 C 834.644531 824.816406 832.671875 831.28125 835.523438 836.539062 C 835.632812 836.648438 835.632812 836.757812 835.742188 836.867188 C 833.222656 831.71875 835.195312 825.363281 840.34375 822.621094 C 845.496094 819.882812 851.851562 821.746094 854.808594 826.675781 C 854.808594 826.566406 854.699219 826.457031 854.589844 826.347656 C 851.742188 821.089844 845.273438 819.117188 840.015625 821.964844 Z M 839.027344 820.429688 C 832.890625 823.71875 830.589844 831.28125 833.878906 837.417969 C 833.988281 837.527344 833.988281 837.636719 834.097656 837.746094 C 831.140625 831.71875 833.441406 824.265625 839.46875 821.089844 C 845.496094 817.910156 852.945312 819.992188 856.234375 825.910156 C 856.125 825.800781 856.125 825.691406 856.015625 825.582031 C 852.726562 819.445312 845.164062 817.144531 839.027344 820.429688 Z M 838.042969 818.570312 C 830.917969 822.402344 828.179688 831.28125 832.015625 838.402344 C 832.125 838.511719 832.125 838.730469 832.234375 838.839844 C 828.726562 831.828125 831.46875 823.171875 838.480469 819.445312 C 845.496094 815.71875 854.152344 818.238281 858.097656 825.035156 C 857.988281 824.925781 857.988281 824.707031 857.878906 824.59375 C 854.042969 817.472656 845.164062 814.734375 838.042969 818.570312 Z M 824.34375 842.457031 C 818.207031 831.0625 822.589844 816.925781 833.878906 810.898438 C 833.878906 810.898438 833.988281 810.898438 833.988281 810.898438 C 823.90625 817.363281 820.179688 831.390625 825.769531 842.785156 C 827.742188 846.839844 830.589844 850.019531 833.988281 852.210938 C 830.042969 850.128906 826.644531 846.839844 824.34375 842.566406 Z M 855.90625 810.789062 C 859.847656 812.871094 863.246094 816.15625 865.546875 820.429688 C 871.683594 831.828125 867.300781 845.964844 856.015625 851.992188 C 856.015625 851.992188 855.90625 851.992188 855.90625 851.992188 C 865.984375 845.527344 869.710938 831.5 864.125 820.101562 C 862.152344 816.046875 859.300781 812.871094 855.90625 810.679688 Z M 820.617188 844.429688 C 819.523438 842.347656 818.757812 840.265625 818.207031 838.183594 L 815.25 838.183594 C 814.59375 838.183594 814.042969 838.402344 813.605469 838.839844 C 813.167969 839.28125 812.949219 839.828125 812.949219 840.484375 C 812.949219 842.457031 813.058594 844.320312 813.058594 846.292969 L 821.714844 846.292969 C 821.386719 845.746094 820.949219 845.085938 820.617188 844.429688 Z M 871.683594 838.183594 C 870.917969 841.03125 869.820312 843.773438 868.179688 846.292969 L 877.929688 846.292969 C 877.601562 844.320312 877.382812 842.238281 877.273438 840.265625 C 877.164062 839.058594 876.175781 838.183594 874.972656 838.183594 Z M 866.316406 848.921875 C 864.125 851.664062 861.273438 854.074219 857.878906 855.828125 L 857.65625 855.9375 L 876.835938 855.9375 C 877.601562 855.9375 878.148438 855.605469 878.589844 855.058594 C 879.027344 854.511719 879.246094 853.855469 879.027344 853.195312 C 878.699219 851.773438 878.480469 850.347656 878.257812 848.921875 Z M 832.125 855.9375 C 828.835938 854.183594 825.878906 851.882812 823.46875 848.921875 L 813.058594 848.921875 C 813.058594 850.566406 813.167969 852.210938 813.277344 853.746094 C 813.277344 854.949219 814.371094 855.9375 815.578125 855.9375 Z M 771.527344 759.832031 L 773.5 759.832031 C 774.265625 759.832031 774.8125 760.160156 775.25 760.707031 C 775.691406 761.257812 775.800781 761.914062 775.691406 762.679688 C 775.691406 762.789062 775.691406 762.902344 775.582031 763.011719 C 775.472656 763.449219 775.363281 763.777344 775.25 764.214844 C 775.03125 765.3125 774.15625 765.96875 773.058594 765.96875 L 770.976562 765.96875 C 770.210938 765.96875 769.664062 765.640625 769.113281 765.09375 C 768.675781 764.542969 768.566406 763.777344 768.675781 763.121094 C 768.785156 762.570312 769.003906 762.023438 769.113281 761.476562 C 769.445312 760.488281 770.320312 759.832031 771.308594 759.832031 Z M 768.019531 778.460938 L 770.320312 778.460938 C 770.976562 778.460938 771.636719 778.679688 772.074219 779.226562 C 772.511719 779.777344 772.730469 780.324219 772.621094 780.980469 C 772.621094 781.421875 772.511719 781.859375 772.511719 782.1875 C 772.511719 782.515625 772.402344 782.953125 772.402344 783.28125 L 765.5 783.28125 C 765.609375 782.296875 765.71875 781.308594 765.828125 780.324219 C 765.9375 779.117188 766.921875 778.351562 768.128906 778.351562 Z M 772.074219 785.914062 C 771.855469 787.667969 771.746094 789.417969 771.527344 791.171875 C 771.417969 792.378906 770.429688 793.253906 769.226562 793.253906 L 766.921875 793.253906 C 766.265625 793.253906 765.71875 793.035156 765.28125 792.488281 C 764.839844 792.050781 764.621094 791.390625 764.730469 790.734375 C 764.839844 789.089844 765.0625 787.445312 765.171875 785.804688 L 772.074219 785.804688 Z M 765.5 838.183594 L 767.691406 838.183594 C 768.894531 838.183594 769.992188 839.171875 769.992188 840.484375 C 769.992188 842.457031 770.101562 844.429688 770.101562 846.402344 L 763.308594 846.402344 C 763.308594 844.429688 763.199219 842.566406 763.199219 840.59375 C 763.199219 839.9375 763.417969 839.390625 763.855469 838.949219 C 764.292969 838.511719 764.839844 838.292969 765.5 838.292969 Z M 770.210938 848.921875 C 770.210938 850.457031 770.320312 851.992188 770.429688 853.523438 C 770.429688 854.183594 770.210938 854.730469 769.773438 855.167969 C 769.335938 855.605469 768.785156 855.828125 768.128906 855.828125 L 765.828125 855.828125 C 764.621094 855.828125 763.636719 854.839844 763.527344 853.636719 C 763.417969 851.992188 763.417969 850.347656 763.308594 848.8125 L 770.101562 848.8125 Z M 766.703125 865.6875 L 769.003906 865.6875 C 770.210938 865.6875 771.195312 866.566406 771.308594 867.769531 L 771.308594 868.320312 L 764.402344 868.320312 L 764.402344 868.101562 C 764.402344 867.441406 764.511719 866.894531 765.0625 866.347656 C 765.5 865.90625 766.046875 865.578125 766.703125 865.578125 Z M 771.527344 870.949219 C 771.855469 874.238281 772.183594 877.523438 772.511719 880.703125 C 772.621094 881.90625 772.839844 883.113281 772.949219 884.316406 L 766.046875 884.316406 C 765.5 879.824219 764.949219 875.332031 764.621094 870.949219 Z M 773.167969 885.632812 C 773.28125 886.070312 773.28125 886.621094 773.390625 887.058594 C 773.5 887.714844 773.28125 888.371094 772.839844 888.921875 C 772.402344 889.46875 771.746094 889.6875 771.085938 889.6875 L 768.785156 889.6875 C 767.691406 889.6875 766.703125 888.8125 766.484375 887.714844 C 766.375 887.167969 766.375 886.621094 766.265625 886.070312 L 766.15625 885.632812 Z M 772.402344 900.863281 L 774.15625 900.863281 C 775.25 900.863281 776.128906 901.523438 776.347656 902.617188 C 776.566406 903.496094 776.785156 904.371094 777.113281 905.25 C 777.332031 906.015625 777.222656 906.671875 776.785156 907.332031 C 776.347656 907.988281 775.691406 908.207031 774.921875 908.207031 L 773.609375 908.207031 C 772.839844 908.207031 772.183594 907.878906 771.746094 907.222656 C 771.085938 906.234375 770.648438 905.140625 770.210938 904.042969 C 769.992188 903.277344 769.992188 902.617188 770.429688 901.960938 C 770.867188 901.304688 771.527344 900.972656 772.292969 900.972656 Z M 799.90625 900.863281 L 803.851562 900.863281 C 804.949219 900.863281 805.824219 901.523438 806.042969 902.507812 C 806.265625 903.386719 806.484375 904.261719 806.8125 905.140625 C 807.03125 905.90625 806.921875 906.5625 806.484375 907.222656 C 806.042969 907.769531 805.386719 908.097656 804.621094 908.097656 L 800.894531 908.097656 C 800.015625 908.097656 799.25 907.660156 798.8125 906.78125 C 798.375 905.796875 797.933594 904.808594 797.605469 903.824219 C 797.386719 903.058594 797.496094 902.398438 797.933594 901.742188 C 798.375 901.085938 799.03125 900.753906 799.796875 900.753906 Z M 822.042969 900.863281 L 911.464844 900.863281 C 911.792969 900.863281 912.121094 900.972656 912.449219 901.085938 C 914.640625 902.070312 916.941406 902.945312 919.351562 903.714844 C 920.449219 904.042969 921.105469 905.140625 920.996094 906.234375 C 920.886719 907.332031 919.902344 908.207031 918.695312 908.207031 L 823.359375 908.207031 C 822.589844 908.207031 821.933594 907.878906 821.496094 907.222656 C 820.839844 906.234375 820.398438 905.140625 819.960938 904.042969 C 819.742188 903.277344 819.742188 902.617188 820.179688 901.960938 C 820.617188 901.304688 821.277344 900.972656 822.042969 900.972656 Z M 792.457031 790.84375 C 792.566406 789.199219 792.785156 787.554688 792.894531 785.914062 L 801.660156 785.914062 C 801.441406 787.667969 801.332031 789.417969 801.113281 791.171875 C 801.003906 792.378906 800.015625 793.253906 798.8125 793.253906 L 794.648438 793.253906 C 793.992188 793.253906 793.441406 793.035156 793.003906 792.488281 C 792.566406 792.050781 792.347656 791.390625 792.457031 790.734375 Z M 793.222656 783.390625 C 793.332031 782.515625 793.441406 781.640625 793.550781 780.761719 C 793.550781 780.652344 793.550781 780.542969 793.550781 780.542969 C 793.660156 779.335938 794.648438 778.570312 795.851562 778.570312 L 800.128906 778.570312 C 800.785156 778.570312 801.441406 778.789062 801.878906 779.335938 C 802.320312 779.886719 802.539062 780.433594 802.429688 781.089844 C 802.320312 781.859375 802.210938 782.625 802.097656 783.503906 L 793.222656 783.503906 Z M 814.371094 790.84375 C 814.480469 789.199219 814.703125 787.554688 814.8125 785.914062 L 887.792969 785.914062 C 886.699219 787.886719 885.710938 789.859375 884.835938 791.941406 C 884.503906 792.816406 883.628906 793.253906 882.753906 793.253906 L 816.675781 793.253906 C 816.015625 793.253906 815.46875 793.035156 815.03125 792.488281 C 814.59375 792.050781 814.371094 791.390625 814.480469 790.734375 Z M 815.140625 783.390625 C 815.25 782.40625 815.359375 781.421875 815.46875 780.433594 C 815.578125 779.226562 816.5625 778.460938 817.769531 778.460938 L 888.339844 778.460938 C 889.21875 778.460938 889.984375 778.898438 890.3125 779.667969 C 890.75 780.433594 890.640625 781.308594 890.203125 781.96875 C 889.875 782.40625 889.65625 782.953125 889.328125 783.390625 Z M 796.511719 763.230469 C 796.621094 762.679688 796.839844 762.132812 796.949219 761.585938 C 797.277344 760.597656 798.15625 759.941406 799.140625 759.941406 L 803.304688 759.941406 C 804.070312 759.941406 804.621094 760.269531 805.058594 760.820312 C 805.496094 761.367188 805.605469 762.023438 805.496094 762.789062 C 805.386719 763.339844 805.277344 763.777344 805.167969 764.324219 C 804.949219 765.421875 804.070312 766.078125 802.976562 766.078125 L 798.8125 766.078125 C 798.046875 766.078125 797.496094 765.75 797.058594 765.203125 C 796.621094 764.652344 796.511719 763.996094 796.621094 763.230469 Z M 818.535156 763.230469 C 818.648438 762.679688 818.867188 762.132812 818.976562 761.585938 C 819.304688 760.597656 820.179688 759.941406 821.167969 759.941406 L 907.078125 759.941406 C 908.175781 759.941406 909.050781 760.597656 909.269531 761.585938 C 909.601562 762.570312 909.160156 763.667969 908.285156 764.105469 C 907.519531 764.542969 906.640625 765.09375 905.875 765.640625 C 905.4375 765.859375 905.105469 766.078125 904.558594 766.078125 L 820.730469 766.078125 C 819.960938 766.078125 819.414062 765.75 818.867188 765.203125 C 818.425781 764.652344 818.316406 763.886719 818.425781 763.230469 Z M 791.359375 853.855469 C 791.25 852.210938 791.25 850.566406 791.140625 849.03125 L 799.796875 849.03125 C 799.796875 850.566406 799.90625 852.101562 800.015625 853.636719 C 800.015625 854.292969 799.796875 854.839844 799.359375 855.277344 C 798.921875 855.71875 798.375 855.9375 797.714844 855.9375 L 793.660156 855.9375 C 792.457031 855.9375 791.46875 854.949219 791.359375 853.746094 Z M 791.140625 846.402344 C 791.140625 844.429688 791.03125 842.566406 791.03125 840.59375 C 791.03125 839.9375 791.25 839.390625 791.6875 838.949219 C 792.128906 838.511719 792.675781 838.292969 793.332031 838.292969 L 797.386719 838.292969 C 798.59375 838.292969 799.6875 839.28125 799.6875 840.59375 C 799.6875 842.566406 799.796875 844.539062 799.796875 846.511719 L 791.140625 846.511719 Z M 794.429688 865.6875 L 798.59375 865.6875 C 799.796875 865.6875 800.785156 866.566406 800.894531 867.769531 L 800.894531 868.320312 L 792.128906 868.320312 L 792.128906 868.101562 C 792.128906 867.441406 792.238281 866.894531 792.785156 866.347656 C 793.222656 865.90625 793.769531 865.578125 794.429688 865.578125 Z M 801.113281 870.949219 C 801.550781 875.441406 801.988281 879.933594 802.648438 884.316406 L 793.769531 884.316406 C 793.660156 883.660156 793.550781 882.894531 793.550781 882.234375 C 793.113281 878.511719 792.675781 874.675781 792.457031 870.949219 L 801.222656 870.949219 Z M 802.757812 885.632812 C 802.867188 886.070312 802.867188 886.621094 802.976562 887.058594 C 803.085938 887.714844 802.867188 888.371094 802.429688 888.921875 C 801.988281 889.46875 801.332031 889.6875 800.675781 889.6875 L 796.402344 889.6875 C 795.304688 889.6875 794.320312 888.8125 794.101562 887.714844 C 793.992188 887.058594 793.878906 886.289062 793.769531 885.632812 Z M 816.34375 865.6875 L 881.109375 865.6875 C 882.09375 865.6875 882.863281 866.238281 883.191406 867.113281 C 883.300781 867.550781 883.519531 867.878906 883.628906 868.320312 L 814.042969 868.320312 L 814.042969 868.101562 C 814.042969 867.441406 814.152344 866.894531 814.703125 866.347656 C 815.140625 865.90625 815.6875 865.578125 816.34375 865.578125 Z M 884.726562 870.949219 C 886.808594 875.660156 889.328125 880.261719 892.394531 884.316406 L 815.578125 884.316406 C 815.03125 879.824219 814.480469 875.332031 814.152344 870.949219 Z M 893.382812 885.632812 C 893.492188 885.742188 893.601562 885.851562 893.601562 885.960938 C 894.148438 886.621094 894.257812 887.605469 893.820312 888.371094 C 893.382812 889.140625 892.613281 889.6875 891.738281 889.6875 L 818.207031 889.6875 C 817.113281 889.6875 816.125 888.921875 815.90625 887.714844 C 815.796875 887.167969 815.796875 886.621094 815.6875 886.070312 L 815.578125 885.632812 Z M 822.042969 911.496094 L 934.148438 911.496094 C 935.132812 911.496094 935.898438 910.398438 936.230469 909.082031 C 936.449219 908.316406 936.558594 907.550781 936.558594 906.78125 C 936.558594 906.015625 936.449219 905.25 936.230469 904.589844 C 935.898438 903.386719 935.132812 902.507812 934.148438 902.507812 C 862.152344 902.507812 862.152344 760.597656 934.148438 760.597656 C 935.242188 760.597656 935.898438 759.722656 936.230469 758.515625 C 936.449219 757.859375 936.558594 757.09375 936.558594 756.324219 C 936.558594 755.558594 936.449219 754.792969 936.230469 754.023438 C 935.789062 752.710938 935.132812 751.613281 934.148438 751.613281 L 822.042969 751.613281 C 805.277344 751.613281 805.277344 911.496094 822.042969 911.496094 Z M 812.839844 751.613281 C 799.359375 775.613281 799.359375 887.496094 812.839844 911.496094 L 798.046875 911.496094 C 784.019531 897.90625 784.019531 765.203125 798.046875 751.613281 Z M 793.992188 751.613281 C 780.511719 773.53125 780.511719 889.6875 793.992188 911.496094 L 787.304688 911.496094 C 773.28125 897.90625 773.28125 765.203125 787.304688 751.613281 Z M 1145.640625 831.609375 C 1145.640625 801.800781 1169.640625 777.585938 1199.335938 777.144531 L 1199.335938 783.503906 C 1173.144531 783.941406 1151.996094 805.308594 1151.996094 831.609375 C 1151.996094 857.910156 1173.144531 879.277344 1199.335938 879.714844 L 1199.335938 886.070312 C 1169.640625 885.632812 1145.640625 861.414062 1145.640625 831.609375 Z M 1149.804688 831.609375 C 1149.804688 810.238281 1163.066406 792.050781 1181.914062 784.707031 C 1163.613281 792.050781 1150.574219 810.238281 1150.574219 831.609375 C 1150.574219 852.867188 1163.503906 871.058594 1181.914062 878.511719 C 1163.175781 871.277344 1149.804688 852.976562 1149.804688 831.609375 Z M 1148.269531 831.609375 C 1148.269531 809.582031 1161.96875 790.84375 1181.253906 783.390625 C 1162.40625 790.953125 1149.039062 809.691406 1149.039062 831.609375 C 1149.039062 853.523438 1162.40625 872.265625 1181.253906 879.824219 C 1161.96875 872.375 1148.269531 853.523438 1148.269531 831.609375 Z M 1218.734375 783.390625 C 1238.019531 790.84375 1251.71875 809.691406 1251.71875 831.609375 C 1251.71875 853.636719 1238.019531 872.375 1218.734375 879.824219 C 1237.582031 872.265625 1250.949219 853.523438 1250.949219 831.609375 C 1250.949219 809.691406 1237.582031 790.953125 1218.734375 783.390625 Z M 1146.738281 831.609375 C 1146.738281 808.925781 1160.875 789.636719 1180.707031 781.859375 C 1161.203125 789.636719 1147.503906 809.035156 1147.503906 831.609375 C 1147.503906 854.183594 1161.3125 873.46875 1180.707031 881.359375 C 1160.761719 873.578125 1146.738281 854.292969 1146.738281 831.609375 Z M 1219.390625 781.859375 C 1239.335938 789.636719 1253.359375 808.925781 1253.359375 831.609375 C 1253.359375 854.292969 1239.226562 873.578125 1219.390625 881.359375 C 1238.894531 873.578125 1252.59375 854.183594 1252.59375 831.609375 C 1252.59375 809.035156 1238.785156 789.75 1219.390625 781.859375 Z M 1218.292969 784.707031 C 1237.03125 791.941406 1250.402344 810.238281 1250.402344 831.609375 C 1250.402344 852.976562 1237.144531 871.167969 1218.292969 878.511719 C 1236.59375 871.167969 1249.636719 852.976562 1249.636719 831.609375 C 1249.636719 810.351562 1236.703125 792.160156 1218.292969 784.707031 Z M 1200.871094 777.144531 C 1230.566406 777.585938 1254.566406 801.800781 1254.566406 831.609375 C 1254.566406 861.414062 1230.566406 885.632812 1200.871094 886.070312 L 1200.871094 879.714844 C 1227.0625 879.277344 1248.210938 857.910156 1248.210938 831.609375 C 1248.210938 805.308594 1227.0625 783.941406 1200.871094 783.503906 Z M 1258.621094 788.324219 C 1259.167969 789.089844 1259.714844 789.75 1260.15625 790.515625 L 1245.582031 790.515625 C 1245.582031 789.96875 1245.691406 789.417969 1245.910156 788.980469 C 1246.566406 787.667969 1247.773438 786.789062 1249.304688 786.789062 L 1255.550781 786.789062 C 1256.757812 786.789062 1257.855469 787.335938 1258.511719 788.324219 Z M 1136.65625 831.609375 C 1136.65625 816.046875 1142.355469 801.691406 1151.777344 790.734375 C 1143.339844 801.910156 1138.191406 816.15625 1138.191406 831.609375 C 1138.191406 847.167969 1143.230469 861.304688 1151.777344 872.484375 C 1142.355469 861.523438 1136.65625 847.167969 1136.65625 831.609375 Z M 1131.394531 831.609375 C 1131.394531 817.800781 1135.449219 805.089844 1142.242188 795.335938 C 1136.21875 805.199219 1132.492188 817.800781 1132.492188 831.609375 C 1132.492188 845.304688 1136.109375 858.019531 1142.242188 867.878906 C 1135.558594 858.128906 1131.394531 845.417969 1131.394531 831.609375 Z M 1133.804688 831.609375 C 1133.804688 815.171875 1139.832031 800.160156 1149.695312 788.542969 C 1140.820312 800.269531 1135.449219 815.28125 1135.449219 831.609375 C 1135.449219 847.9375 1140.820312 862.949219 1149.695312 874.675781 C 1139.832031 863.058594 1133.804688 848.046875 1133.804688 831.609375 Z M 1264.539062 797.636719 C 1270.015625 808.046875 1272.867188 819.664062 1272.867188 831.609375 C 1272.867188 833.691406 1272.757812 835.664062 1272.648438 837.746094 L 1260.265625 837.746094 C 1260.484375 835.773438 1260.59375 833.691406 1260.59375 831.609375 C 1260.59375 819.445312 1256.976562 807.609375 1250.183594 797.636719 L 1264.648438 797.636719 Z M 1271.660156 844.867188 C 1271.332031 846.730469 1270.894531 848.59375 1270.457031 850.457031 L 1257.632812 850.457031 C 1258.292969 848.59375 1258.730469 846.730469 1259.167969 844.867188 L 1271.769531 844.867188 Z M 1264.976562 864.703125 C 1263.113281 868.210938 1261.03125 871.605469 1258.621094 874.894531 C 1257.855469 875.878906 1256.867188 876.429688 1255.660156 876.429688 L 1249.414062 876.429688 C 1247.992188 876.429688 1246.675781 875.660156 1246.019531 874.238281 C 1245.359375 872.921875 1245.582031 871.386719 1246.566406 870.292969 C 1248.101562 868.539062 1249.414062 866.675781 1250.730469 864.703125 Z M 1238.128906 784.707031 C 1229.472656 777.804688 1219.171875 773.3125 1208.210938 771.886719 C 1207.773438 771.777344 1207.335938 771.667969 1207.007812 771.558594 L 1244.15625 771.558594 L 1244.15625 781.859375 C 1244.15625 783.28125 1243.390625 784.597656 1242.074219 785.253906 C 1240.757812 785.914062 1239.226562 785.695312 1238.128906 784.816406 Z M 1205.035156 768.269531 L 1205.035156 765.3125 C 1205.035156 765.203125 1205.035156 765.09375 1205.035156 765.09375 L 1244.15625 765.09375 C 1244.15625 765.203125 1244.15625 765.3125 1244.15625 765.3125 L 1244.15625 768.269531 Z M 1205.582031 763.449219 C 1206.242188 762.351562 1207.445312 761.695312 1208.761719 761.695312 L 1240.429688 761.695312 C 1241.746094 761.695312 1242.949219 762.460938 1243.609375 763.449219 Z M 1244.265625 881.578125 L 1244.265625 891.113281 L 1210.734375 891.113281 C 1220.816406 889.359375 1230.238281 885.085938 1238.238281 878.621094 C 1239.335938 877.742188 1240.867188 877.523438 1242.183594 878.179688 C 1243.5 878.839844 1244.265625 880.042969 1244.265625 881.578125 Z M 1244.265625 892.757812 L 1244.265625 895.933594 L 1205.144531 895.933594 L 1205.144531 895.167969 C 1205.144531 894.289062 1205.472656 893.414062 1206.019531 892.757812 Z M 1244.046875 899.222656 C 1243.5 900.644531 1242.183594 901.742188 1240.539062 901.742188 L 1208.871094 901.742188 C 1207.226562 901.742188 1205.800781 900.644531 1205.363281 899.222656 L 1244.15625 899.222656 Z M 890.09375 848.8125 C 889.984375 847.9375 889.765625 847.058594 889.65625 846.183594 L 1113.644531 846.183594 C 1121.640625 846.183594 1128.109375 839.71875 1128.109375 831.71875 C 1128.109375 829.199219 1127.449219 826.898438 1126.355469 824.925781 C 1126.683594 826.128906 1126.902344 827.554688 1126.902344 828.871094 C 1126.902344 836.867188 1120.4375 843.335938 1112.4375 843.335938 L 889.21875 843.335938 C 889.109375 842.785156 889.109375 842.238281 889 841.691406 L 1113.535156 841.691406 C 1119.011719 841.691406 1123.503906 837.199219 1123.503906 831.71875 C 1123.503906 826.238281 1119.011719 821.746094 1113.535156 821.746094 L 889 821.746094 C 889.21875 819.335938 889.546875 817.035156 889.984375 814.625 C 890.203125 813.636719 890.640625 812.761719 891.519531 812.210938 C 892.394531 811.664062 893.273438 811.445312 894.367188 811.664062 C 899.957031 812.652344 905.546875 813.089844 911.242188 813.089844 L 1082.410156 811.882812 C 1082.523438 811.882812 1082.632812 811.882812 1082.742188 811.882812 C 1104.546875 809.910156 1124.492188 802.898438 1140.710938 787.886719 C 1141.476562 787.226562 1142.242188 786.898438 1143.230469 786.898438 L 1151.011719 786.898438 C 1152.433594 786.898438 1153.75 787.667969 1154.40625 789.089844 C 1155.066406 790.40625 1154.847656 791.941406 1153.859375 793.035156 C 1144.765625 803.882812 1139.832031 817.472656 1139.832031 831.71875 C 1139.832031 845.964844 1144.765625 859.550781 1153.859375 870.402344 C 1154.847656 871.496094 1154.957031 873.03125 1154.40625 874.347656 C 1153.75 875.660156 1152.542969 876.539062 1151.011719 876.539062 L 1143.230469 876.539062 C 1142.242188 876.539062 1141.476562 876.207031 1140.710938 875.550781 C 1124.492188 860.539062 1104.546875 853.523438 1082.742188 851.554688 C 1082.632812 851.554688 1082.523438 851.554688 1082.410156 851.554688 L 911.242188 850.347656 C 905.65625 850.347656 899.957031 850.785156 894.367188 851.773438 C 893.382812 851.992188 892.394531 851.773438 891.519531 851.222656 C 890.640625 850.675781 890.203125 849.800781 889.984375 848.8125 Z M 1162.296875 878.730469 C 1170.296875 885.195312 1179.722656 889.46875 1189.804688 891.222656 L 1156.269531 891.222656 L 1156.269531 881.6875 C 1156.269531 880.261719 1157.039062 878.949219 1158.351562 878.289062 C 1159.667969 877.632812 1161.203125 877.851562 1162.296875 878.730469 Z M 1194.515625 892.867188 C 1195.0625 893.523438 1195.390625 894.398438 1195.390625 895.277344 L 1195.390625 896.042969 L 1156.269531 896.042969 L 1156.269531 892.867188 Z M 1195.171875 899.332031 C 1194.625 900.753906 1193.308594 901.851562 1191.664062 901.851562 L 1159.996094 901.851562 C 1158.351562 901.851562 1156.929688 900.753906 1156.488281 899.332031 L 1195.28125 899.332031 Z M 1156.160156 781.96875 L 1156.160156 771.777344 L 1193.308594 771.777344 C 1192.980469 771.996094 1192.542969 772.105469 1192.105469 772.105469 C 1181.144531 773.53125 1170.84375 778.023438 1162.1875 784.925781 C 1161.09375 785.804688 1159.558594 786.023438 1158.242188 785.363281 C 1156.929688 784.707031 1156.160156 783.503906 1156.160156 781.96875 Z M 1156.160156 768.378906 L 1156.160156 765.421875 C 1156.160156 765.3125 1156.160156 765.203125 1156.160156 765.203125 L 1195.28125 765.203125 C 1195.28125 765.3125 1195.28125 765.421875 1195.28125 765.421875 L 1195.28125 768.378906 Z M 1156.707031 763.558594 C 1157.367188 762.460938 1158.570312 761.804688 1159.886719 761.804688 L 1191.554688 761.804688 C 1192.871094 761.804688 1194.078125 762.570312 1194.734375 763.558594 Z M 1250.730469 904.699219 L 1250.730469 882.894531 L 1264.320312 882.894531 L 1264.429688 891.660156 L 1255.113281 904.699219 Z M 1250.730469 759.066406 L 1250.730469 780.871094 L 1264.320312 780.871094 L 1264.429688 772.105469 L 1255.113281 759.066406 Z M 1259.605469 783.0625 L 1248.429688 783.0625 L 1248.429688 781.53125 L 1248.320312 757.75 L 1200.980469 757.75 L 1200.980469 775.722656 C 1231.773438 776.050781 1256.648438 801.035156 1256.648438 831.9375 C 1256.648438 862.730469 1231.773438 887.824219 1200.980469 888.152344 L 1200.980469 906.125 L 1248.320312 906.125 L 1248.429688 882.34375 L 1248.429688 880.8125 L 1259.605469 880.8125 C 1270.566406 867.550781 1277.140625 850.457031 1277.140625 831.9375 C 1277.140625 813.417969 1270.566406 796.324219 1259.605469 783.0625 Z M 1149.695312 759.066406 L 1149.695312 780.871094 L 1136.105469 780.871094 L 1135.996094 772.105469 L 1145.3125 759.066406 Z M 887.792969 805.964844 C 895.246094 808.15625 903.136719 809.144531 911.132812 809.035156 L 1082.300781 807.828125 C 1104.546875 805.855469 1124.273438 798.515625 1140.050781 782.84375 L 1151.996094 782.84375 L 1151.996094 781.308594 L 1152.105469 757.53125 L 1199.445312 757.53125 L 1199.445312 775.503906 C 1168.652344 775.832031 1143.777344 800.816406 1143.777344 831.71875 C 1143.777344 862.511719 1168.652344 887.605469 1199.445312 887.933594 L 1199.445312 905.90625 L 1152.105469 905.90625 L 1151.996094 882.125 L 1151.996094 880.59375 L 1140.050781 880.59375 C 1124.273438 864.921875 1104.546875 857.578125 1082.300781 855.605469 L 911.132812 854.402344 C 903.023438 854.292969 895.246094 855.277344 887.792969 857.46875 C 883.300781 840.921875 883.300781 822.183594 887.792969 805.746094 Z M 887.792969 805.964844 " fill-opacity="1" fill-rule="evenodd"/></g><g clip-path="url(#3501f20063)"><g clip-path="url(#4616a6f4b9)"><g transform="matrix(1, 0, 0, 1, 403, 913)"><g clip-path="url(#40a8de465b)"><g clip-path="url(#c48ac8cb2e)"><g clip-path="url(#783bf7a719)"><g clip-path="url(#44633b7124)"><g clip-path="url(#d90cedc413)"><path fill="#000000" d="M 277.734375 126.0625 C 277.382812 118.914062 276.464844 112.113281 274.980469 105.589844 L 313.59375 93.785156 C 315.734375 103.152344 316.816406 113.167969 316.652344 123.675781 C 316.679688 124.722656 316.613281 125.773438 316.59375 126.820312 Z M 273.257812 98.863281 C 270.132812 88.25 265.535156 78.519531 259.640625 69.859375 L 290.542969 47.4375 C 300.207031 58.757812 307.484375 72.019531 311.84375 87.101562 Z M 255.546875 64.269531 C 249.324219 56.40625 241.921875 49.5 233.515625 43.644531 L 251.214844 18.019531 C 264.539062 24.191406 276.1875 32.339844 285.859375 42.257812 Z M 227.707031 39.894531 C 219.152344 34.730469 209.75 30.574219 199.589844 27.476562 L 205.210938 5.292969 C 219.449219 6.976562 232.691406 10.339844 244.742188 15.171875 Z M 192.847656 25.648438 C 182.875 23.175781 172.234375 21.742188 161.058594 21.34375 L 159.785156 5.410156 C 173.121094 3.886719 185.988281 3.648438 198.226562 4.578125 Z M 154.085938 21.210938 C 143.101562 21.261719 131.628906 22.308594 119.777344 24.445312 L 115.585938 14.632812 C 117.613281 14.027344 119.660156 13.441406 121.726562 12.878906 C 132.320312 9.941406 142.761719 7.777344 152.898438 6.304688 Z M 112.820312 25.824219 C 107.832031 26.867188 102.796875 28.128906 97.691406 29.570312 C 89.664062 31.867188 81.691406 34.566406 73.917969 37.648438 L 70.003906 32.976562 C 82.5625 26.664062 95.574219 21.160156 108.949219 16.734375 Z M 67.175781 40.398438 C 60.136719 43.40625 53.183594 46.726562 46.425781 50.367188 L 45.535156 46.757812 C 51.445312 43.011719 57.484375 39.539062 63.65625 36.199219 Z M 40.140625 53.835938 C 38.195312 54.9375 36.273438 56.082031 34.371094 57.226562 L 33.730469 54.539062 C 35.589844 53.257812 37.46875 51.976562 39.375 50.699219 Z M 28.144531 61.054688 C 24.863281 63.132812 21.644531 65.257812 18.449219 67.46875 L 17.980469 66.234375 C 21.09375 63.707031 24.316406 61.269531 27.605469 58.878906 Z M 12.664062 71.664062 C 8.917969 74.402344 5.261719 77.164062 1.738281 80.085938 C 5.179688 76.917969 8.707031 73.816406 12.320312 70.832031 Z M 12.664062 71.664062 " fill-opacity="1" fill-rule="evenodd"/></g></g></g></g></g></g></g></g><g clip-path="url(#91d4331237)"><g clip-path="url(#5b4ff0862d)"><g clip-path="url(#eaed3e77c9)"><path fill="#000000" d="M 750.9375 474.460938 L 795.859375 473.875 C 769.039062 459.199219 745.894531 448.09375 728.535156 440.207031 C 693.332031 424.226562 675.234375 416.128906 650.757812 410.964844 C 640.945312 408.890625 622.105469 405.574219 580.835938 406.605469 C 540.402344 407.632812 500.359375 412.136719 460.707031 420.125 C 424.386719 427.503906 395.375 436.175781 309.128906 457.148438 C 295.683594 460.542969 282.035156 462.535156 268.183594 463.121094 C 249.222656 463.875 230.523438 462.007812 212.089844 457.519531 C 223.875 465.339844 236.21875 472.140625 249.128906 477.925781 C 264.761719 484.875 280.921875 490.253906 297.605469 494.058594 C 314.285156 497.863281 331.179688 500.027344 348.28125 500.542969 C 348.28125 500.542969 319.449219 491.230469 306.730469 481.601562 C 346.628906 470.804688 402.257812 456.105469 470.867188 439.113281 C 470.867188 439.113281 550.933594 419.277344 622.769531 420.886719 C 637.570312 421.222656 650.886719 422.683594 665.5 427.582031 C 677.964844 431.757812 685.308594 436.414062 713.210938 452.691406 C 728.261719 461.449219 741.125 468.851562 750.9375 474.460938 Z M 750.9375 474.460938 " fill-opacity="1" fill-rule="nonzero"/></g></g></g><g clip-path="url(#3a1004e284)"><g clip-path="url(#fdd171a84a)"><g clip-path="url(#eebf66c770)"><path fill="#cc0000" d="M 1150.496094 564.296875 C 1144.640625 558.761719 1138.519531 553.539062 1132.132812 548.625 C 1088.164062 514.792969 1041.273438 503.28125 996.5 496.261719 C 951.902344 489.265625 926.621094 489.480469 775.222656 488.621094 C 689.511719 488.167969 682.296875 488.035156 674.070312 487.824219 C 605.722656 486.105469 537.675781 480.644531 469.929688 471.445312 C 482.609375 474.574219 502.300781 479.175781 526.542969 483.773438 C 601.296875 497.949219 658.785156 500.574219 785.308594 503.824219 C 853.261719 505.570312 911.367188 506.730469 956.324219 507.515625 C 953.050781 509.386719 949.953125 511.511719 947.035156 513.894531 C 942.003906 517.933594 936.238281 523.683594 933.117188 530.480469 C 937.128906 527.378906 962.089844 508.726562 996.609375 514.550781 C 1031.324219 520.402344 1048.816406 546.480469 1051.546875 550.710938 C 1051.738281 547.988281 1051.601562 545.285156 1051.140625 542.59375 C 1050.660156 539.589844 1049.773438 536.710938 1048.472656 533.957031 C 1047.175781 531.207031 1045.523438 528.6875 1043.511719 526.402344 C 1055.273438 527.53125 1066.886719 529.539062 1078.34375 532.429688 C 1091.171875 535.6875 1103.644531 539.992188 1115.753906 545.339844 C 1127.863281 550.6875 1139.445312 557.007812 1150.496094 564.296875 Z M 1150.496094 564.296875 " fill-opacity="1" fill-rule="nonzero"/></g></g></g><g clip-path="url(#33bcd28fb9)"><g clip-path="url(#d946d07109)"><g clip-path="url(#06c693d39b)"><path fill="#000000" d="M 491.3125 529.371094 C 489.6875 523.8125 487.378906 518.5625 484.382812 513.609375 C 481.386719 508.65625 477.804688 504.171875 473.632812 500.160156 C 455.8125 483.277344 429.460938 478.339844 406.859375 485.027344 C 377.164062 493.847656 364.636719 519.589844 362.671875 523.804688 C 380.96875 500.753906 409.621094 489.046875 437.597656 493.488281 C 471.125 498.84375 488.535156 525.054688 491.3125 529.371094 Z M 491.3125 529.371094 " fill-opacity="1" fill-rule="nonzero"/></g></g></g><g clip-path="url(#d5f7a00bc7)"><path fill="#000000" d="M 294.566406 912.851562 L 294.566406 807.988281 L 418.914062 807.988281 C 434.105469 807.988281 446.460938 795.628906 446.460938 780.4375 L 446.460938 608.945312 L 326.78125 608.945312 L 256.714844 504.085938 L 551.34375 504.085938 L 551.34375 778.71875 C 551.34375 852.679688 491.164062 912.851562 417.195312 912.851562 Z M 294.566406 912.851562 " fill-opacity="1" fill-rule="nonzero"/></g><g clip-path="url(#6272615231)"><g clip-path="url(#acef22a5df)"><g transform="matrix(1, 0, 0, 1, 994, 919)"><g clip-path="url(#1a3bf8c48a)"><g clip-path="url(#ee22a542f1)"><g clip-path="url(#86cea68f6f)"><path fill="#cc0000" d="M 0.0117188 0.949219 L 184.371094 0.949219 L 184.371094 185.308594 L 0.0117188 185.308594 Z M 0.0117188 0.949219 " fill-opacity="1" fill-rule="nonzero"/></g></g></g></g></g></g><g fill="#000000" fill-opacity="1"><g transform="translate(563.229489, 728.273893)"><g><path d="M 96 -165.34375 L 162.75 0 L 122.25 0 L 110.03125 -33.0625 L 47.09375 -33.0625 L 34.875 0 L -5.609375 0 L 61.125 -165.34375 Z M 97.203125 -66.140625 L 78.765625 -114.234375 L 78.359375 -114.234375 L 59.921875 -66.140625 Z M 97.203125 -66.140625 "/></g></g></g><g fill="#000000" fill-opacity="1"><g transform="translate(720.360475, 728.273893)"><g><path d="M 12.03125 -165.34375 L 72.359375 -165.34375 C 89.191406 -165.34375 102.816406 -161 113.234375 -152.3125 C 123.660156 -143.632812 128.875 -131.007812 128.875 -114.4375 C 128.875 -97.875 123.59375 -84.878906 113.03125 -75.453125 C 102.476562 -66.035156 88.921875 -61.328125 72.359375 -61.328125 L 49.703125 -61.328125 L 49.703125 0 L 12.03125 0 Z M 49.703125 -91.390625 L 60.328125 -91.390625 C 68.742188 -91.390625 75.65625 -93.09375 81.0625 -96.5 C 86.476562 -99.90625 89.1875 -105.484375 89.1875 -113.234375 C 89.1875 -121.117188 86.476562 -126.765625 81.0625 -130.171875 C 75.65625 -133.578125 68.742188 -135.28125 60.328125 -135.28125 L 49.703125 -135.28125 Z M 49.703125 -91.390625 "/></g></g></g><g fill="#000000" fill-opacity="1"><g transform="translate(841.014609, 728.273893)"><g><path d="M 96 -165.34375 L 162.75 0 L 122.25 0 L 110.03125 -33.0625 L 47.09375 -33.0625 L 34.875 0 L -5.609375 0 L 61.125 -165.34375 Z M 97.203125 -66.140625 L 78.765625 -114.234375 L 78.359375 -114.234375 L 59.921875 -66.140625 Z M 97.203125 -66.140625 "/></g></g></g><g fill="#000000" fill-opacity="1"><g transform="translate(998.145595, 728.273893)"><g><path d="M 49.703125 -102.609375 L 49.703125 0 L 12.03125 0 L 12.03125 -165.34375 L 49.703125 -165.34375 L 115.4375 -62.734375 L 115.84375 -62.734375 L 115.84375 -165.34375 L 153.515625 -165.34375 L 153.515625 0 L 115.84375 0 L 50.109375 -102.609375 Z M 49.703125 -102.609375 "/></g></g></g><g fill="#000000" fill-opacity="1"><g transform="translate(739.551954, 1094.905494)"><g><path d="M 139.09375 -165.34375 L 139.09375 -58.71875 C 139.09375 -38.414062 133.613281 -23.050781 122.65625 -12.625 C 111.695312 -2.207031 95.660156 3 74.546875 3 C 53.441406 3 37.410156 -2.207031 26.453125 -12.625 C 15.492188 -23.050781 10.015625 -38.414062 10.015625 -58.71875 L 10.015625 -165.34375 L 47.703125 -165.34375 L 47.703125 -69.75 C 47.703125 -56.382812 49.804688 -47.097656 54.015625 -41.890625 C 58.222656 -36.679688 65.066406 -34.078125 74.546875 -34.078125 C 84.035156 -34.078125 90.882812 -36.679688 95.09375 -41.890625 C 99.300781 -47.097656 101.40625 -56.382812 101.40625 -69.75 L 101.40625 -165.34375 Z M 139.09375 -165.34375 "/></g></g></g><g fill="#000000" fill-opacity="1"><g transform="translate(879.045762, 1094.905494)"><g><path d="M 1.609375 -132.28125 L 1.609375 -165.34375 L 117.84375 -165.34375 L 117.84375 -132.28125 L 78.5625 -132.28125 L 78.5625 0 L 40.890625 0 L 40.890625 -132.28125 Z M 1.609375 -132.28125 "/></g></g></g><g fill="#000000" fill-opacity="1"><g transform="translate(998.501154, 1094.905494)"><g/></g></g><g fill="#000000" fill-opacity="1"><g transform="translate(1053.216393, 1094.905494)"><g/></g></g><g fill="#000000" fill-opacity="1"><g transform="translate(1107.931633, 1094.905494)"><g/></g></g><g fill="#000000" fill-opacity="1"><g transform="translate(1158.649578, 1094.905494)"><g><path d="M 72.953125 -168.359375 C 81.898438 -168.359375 90.648438 -167.050781 99.203125 -164.4375 C 107.753906 -161.832031 114.101562 -159.265625 118.25 -156.734375 L 124.265625 -152.71875 L 109.03125 -122.65625 C 107.820312 -123.457031 106.148438 -124.492188 104.015625 -125.765625 C 101.878906 -127.035156 97.867188 -128.738281 91.984375 -130.875 C 86.109375 -133.007812 80.632812 -134.078125 75.5625 -134.078125 C 69.28125 -134.078125 64.4375 -132.738281 61.03125 -130.0625 C 57.625 -127.394531 55.921875 -123.789062 55.921875 -119.25 C 55.921875 -116.976562 56.722656 -114.875 58.328125 -112.9375 C 59.929688 -111 62.671875 -108.925781 66.546875 -106.71875 C 70.421875 -104.519531 73.828125 -102.75 76.765625 -101.40625 C 79.703125 -100.070312 84.242188 -98.070312 90.390625 -95.40625 C 101.078125 -90.863281 110.195312 -84.679688 117.75 -76.859375 C 125.300781 -69.046875 129.078125 -60.195312 129.078125 -50.3125 C 129.078125 -40.820312 127.367188 -32.535156 123.953125 -25.453125 C 120.546875 -18.367188 115.867188 -12.820312 109.921875 -8.8125 C 103.984375 -4.8125 97.40625 -1.84375 90.1875 0.09375 C 82.96875 2.03125 75.148438 3 66.734375 3 C 59.523438 3 52.445312 2.265625 45.5 0.796875 C 38.550781 -0.671875 32.738281 -2.503906 28.0625 -4.703125 C 23.382812 -6.910156 19.175781 -9.082031 15.4375 -11.21875 C 11.695312 -13.363281 8.957031 -15.171875 7.21875 -16.640625 L 4.609375 -18.84375 L 23.453125 -50.5 C 25.054688 -49.164062 27.257812 -47.460938 30.0625 -45.390625 C 32.863281 -43.316406 37.835938 -40.539062 44.984375 -37.0625 C 52.140625 -33.59375 58.457031 -31.859375 63.9375 -31.859375 C 79.832031 -31.859375 87.78125 -37.269531 87.78125 -48.09375 C 87.78125 -50.375 87.210938 -52.484375 86.078125 -54.421875 C 84.941406 -56.359375 82.9375 -58.296875 80.0625 -60.234375 C 77.195312 -62.171875 74.660156 -63.707031 72.453125 -64.84375 C 70.242188 -65.976562 66.632812 -67.710938 61.625 -70.046875 C 56.613281 -72.390625 52.90625 -74.160156 50.5 -75.359375 C 40.476562 -80.304688 32.726562 -86.484375 27.25 -93.890625 C 21.78125 -101.304688 19.046875 -109.289062 19.046875 -117.84375 C 19.046875 -132.675781 24.519531 -144.800781 35.46875 -154.21875 C 46.425781 -163.644531 58.921875 -168.359375 72.953125 -168.359375 Z M 72.953125 -168.359375 "/></g></g></g></svg>