<svg xmlns="http://www.w3.org/2000/svg" xmlns:xlink="http://www.w3.org/1999/xlink" width="2000" zoomAndPan="magnify" viewBox="0 0 1500 1499.999933" height="2000" preserveAspectRatio="xMidYMid meet" version="1.0"><defs><clipPath id="672d45d9ed"><path d="M 403.375 341.449219 L 812.875 341.449219 L 812.875 909.199219 L 403.375 909.199219 Z M 403.375 341.449219 " clip-rule="nonzero"/></clipPath><clipPath id="c8410c7278"><path d="M 608.121094 660.5 L 1096.371094 660.5 L 1096.371094 1158.5 L 608.121094 1158.5 Z M 608.121094 660.5 " clip-rule="nonzero"/></clipPath><clipPath id="643482503f"><path d="M 607 909 L 1050 909 L 1050 1087 L 607 1087 Z M 607 909 " clip-rule="nonzero"/></clipPath><clipPath id="36669536f0"><path d="M 1046.609375 1086.171875 L 607.945312 1077.609375 L 611.222656 909.640625 L 1049.890625 918.207031 Z M 1046.609375 1086.171875 " clip-rule="nonzero"/></clipPath><clipPath id="f9c90184ea"><path d="M 2 6 L 440 6 L 440 177 L 2 177 Z M 2 6 " clip-rule="nonzero"/></clipPath><clipPath id="6b02bbb600"><path d="M 439.609375 177.171875 L 0.945312 168.609375 L 4.222656 0.640625 L 442.890625 9.207031 Z M 439.609375 177.171875 " clip-rule="nonzero"/></clipPath><clipPath id="d831ba2c6d"><path d="M 442.890625 9.089844 L 4.226562 0.523438 L 0.945312 168.492188 L 439.613281 177.054688 Z M 442.890625 9.089844 " clip-rule="nonzero"/></clipPath><clipPath id="2ff20a8d8e"><path d="M 442.890625 9.089844 L 4.226562 0.523438 L 0.945312 168.492188 L 439.613281 177.054688 Z M 442.890625 9.089844 " clip-rule="nonzero"/></clipPath><clipPath id="146ddf2ecb"><rect x="0" width="443" y="0" height="178"/></clipPath><clipPath id="01015be3ba"><path d="M 403.375 341.449219 L 812.875 341.449219 L 812.875 909.199219 L 403.375 909.199219 Z M 403.375 341.449219 " clip-rule="nonzero"/></clipPath></defs><rect x="-150" width="1800" fill="#ffffff" y="-149.999993" height="1799.99992" fill-opacity="1"/><rect x="-150" width="1800" fill="#f6f6f6" y="-149.999993" height="1799.99992" fill-opacity="1"/><g clip-path="url(#672d45d9ed)"><path fill="#000000" d="M 456.042969 909.175781 L 456.042969 763.519531 L 628.804688 763.519531 C 649.910156 763.519531 667.082031 746.355469 667.082031 725.253906 L 667.082031 487.050781 L 500.800781 487.050781 L 403.453125 341.402344 L 812.792969 341.402344 L 812.792969 722.863281 C 812.792969 825.601562 729.1875 909.175781 626.417969 909.175781 Z M 456.042969 909.175781 " fill-opacity="1" fill-rule="nonzero"/></g><g clip-path="url(#c8410c7278)"><path fill="#cc0000" d="M 745.570312 790.542969 L 608.121094 1158.566406 L 735.398438 1158.566406 L 766.597656 1070.25 L 802.199219 963.59375 Z M 910.714844 660.511719 L 794.980469 660.511719 L 851.40625 823.1875 L 851.472656 822.980469 L 935.042969 1070.25 L 966.863281 1158.566406 L 1096.617188 1158.566406 L 910.714844 660.511719 " fill-opacity="1" fill-rule="nonzero"/></g><g clip-path="url(#643482503f)"><g clip-path="url(#36669536f0)"><g transform="matrix(1, 0, 0, 1, 607, 909)"><g clip-path="url(#146ddf2ecb)"><g clip-path="url(#f9c90184ea)"><g clip-path="url(#6b02bbb600)"><g clip-path="url(#d831ba2c6d)"><g clip-path="url(#2ff20a8d8e)"><path fill="#000000" d="M 385.558594 175.898438 C 385.066406 165.953125 383.792969 156.492188 381.730469 147.417969 L 435.382812 130.988281 C 438.363281 144.023438 439.859375 157.960938 439.636719 172.578125 C 439.671875 174.039062 439.582031 175.496094 439.550781 176.953125 Z M 379.335938 138.058594 C 374.992188 123.289062 368.605469 109.753906 360.417969 97.703125 L 403.359375 66.503906 C 416.785156 82.257812 426.898438 100.707031 432.953125 121.6875 Z M 354.726562 89.921875 C 346.085938 78.984375 335.796875 69.375 324.117188 61.230469 L 348.710938 25.574219 C 367.222656 34.164062 383.410156 45.5 396.847656 59.296875 Z M 316.042969 56.011719 C 304.15625 48.828125 291.09375 43.046875 276.972656 38.734375 L 284.785156 7.871094 C 304.570312 10.214844 322.96875 14.890625 339.714844 21.613281 Z M 267.605469 36.191406 C 253.75 32.753906 238.964844 30.757812 223.4375 30.207031 L 221.664062 8.039062 C 240.195312 5.914062 258.074219 5.582031 275.078125 6.875 Z M 213.742188 30.015625 C 198.480469 30.09375 182.539062 31.550781 166.074219 34.519531 L 160.25 20.871094 C 163.0625 20.023438 165.90625 19.210938 168.78125 18.429688 C 183.5 14.339844 198.007812 11.332031 212.097656 9.277344 Z M 156.402344 36.441406 C 149.472656 37.890625 142.476562 39.648438 135.382812 41.648438 C 124.226562 44.847656 113.152344 48.605469 102.34375 52.894531 L 96.910156 46.394531 C 114.359375 37.609375 132.441406 29.949219 151.023438 23.792969 Z M 92.976562 56.71875 C 83.199219 60.902344 73.535156 65.527344 64.144531 70.589844 L 62.90625 65.566406 C 71.121094 60.355469 79.511719 55.523438 88.085938 50.878906 Z M 55.410156 75.417969 C 52.707031 76.949219 50.035156 78.542969 47.394531 80.136719 L 46.503906 76.390625 C 49.085938 74.609375 51.699219 72.832031 54.347656 71.050781 Z M 38.742188 85.460938 C 34.179688 88.351562 29.710938 91.308594 25.265625 94.386719 L 24.617188 92.667969 C 28.941406 89.148438 33.421875 85.761719 37.992188 82.433594 Z M 17.226562 100.222656 C 12.027344 104.03125 6.945312 107.875 2.050781 111.941406 C 6.828125 107.53125 11.730469 103.21875 16.753906 99.0625 Z M 17.226562 100.222656 " fill-opacity="1" fill-rule="evenodd"/></g></g></g></g></g></g></g></g><g clip-path="url(#01015be3ba)"><path fill="#000000" d="M 456.042969 909.175781 L 456.042969 763.519531 L 628.804688 763.519531 C 649.910156 763.519531 667.082031 746.355469 667.082031 725.253906 L 667.082031 487.050781 L 500.800781 487.050781 L 403.453125 341.402344 L 812.792969 341.402344 L 812.792969 722.863281 C 812.792969 825.601562 729.1875 909.175781 626.417969 909.175781 Z M 456.042969 909.175781 " fill-opacity="1" fill-rule="nonzero"/></g></svg>